<svg width="32" height="32" viewBox="0 0 32 32" fill="none" xmlns="http://www.w3.org/2000/svg">
  <!-- Background circle -->
  <circle cx="16" cy="16" r="15" fill="#0055f4" stroke="#0036b1" stroke-width="2"/>
  
  <!-- Letter O stylized -->
  <path d="M16 6C10.5 6 6 10.5 6 16C6 21.5 10.5 26 16 26C21.5 26 26 21.5 26 16C26 10.5 21.5 6 16 6ZM16 22C12.7 22 10 19.3 10 16C10 12.7 12.7 10 16 10C19.3 10 22 12.7 22 16C22 19.3 19.3 22 16 22Z" fill="white"/>
  
  <!-- Inner design element -->
  <circle cx="16" cy="16" r="4" fill="#1a6aff" opacity="0.8"/>
  <path d="M14.5 16L16 14.5L17.5 16L16 17.5Z" fill="white"/>
</svg>